<?xml version="1.0" encoding="UTF-8" standalone="no"?>
<!-- Created with Inkscape (http://www.inkscape.org/) -->

<svg
   xmlns:dc="http://purl.org/dc/elements/1.1/"
   xmlns:cc="http://creativecommons.org/ns#"
   xmlns:rdf="http://www.w3.org/1999/02/22-rdf-syntax-ns#"
   xmlns:svg="http://www.w3.org/2000/svg"
   xmlns="http://www.w3.org/2000/svg"
   xmlns:sodipodi="http://sodipodi.sourceforge.net/DTD/sodipodi-0.dtd"
   xmlns:inkscape="http://www.inkscape.org/namespaces/inkscape"
   width="150"
   height="150"
   viewBox="0 0 39.687499 39.687499"
   version="1.1"
   id="svg8"
   inkscape:version="0.92.4 (5da689c313, 2019-01-14)"
   sodipodi:docname="MHST2-Aptonoth Egg.svg">
  <defs
     id="defs2" />
  <sodipodi:namedview
     id="base"
     pagecolor="#ffffff"
     bordercolor="#666666"
     borderopacity="1.0"
     inkscape:pageopacity="0.0"
     inkscape:pageshadow="2"
     inkscape:zoom="2.8"
     inkscape:cx="82.696801"
     inkscape:cy="65.93778"
     inkscape:document-units="px"
     inkscape:current-layer="layer1"
     showgrid="false"
     units="px"
     inkscape:window-width="1304"
     inkscape:window-height="745"
     inkscape:window-x="-8"
     inkscape:window-y="-8"
     inkscape:window-maximized="1"
     showguides="true"
     inkscape:guide-bbox="true"
     inkscape:snap-smooth-nodes="true"
     inkscape:snap-global="true">
    <inkscape:grid
       type="xygrid"
       id="grid878" />
  </sodipodi:namedview>
  <metadata
     id="metadata5">
    <rdf:RDF>
      <cc:Work
         rdf:about="">
        <dc:format>image/svg+xml</dc:format>
        <dc:type
           rdf:resource="http://purl.org/dc/dcmitype/StillImage" />
        <dc:title></dc:title>
      </cc:Work>
    </rdf:RDF>
  </metadata>
  <g
     inkscape:label="Layer 1"
     inkscape:groupmode="layer"
     id="layer1"
     transform="translate(0,-257.31251)">
    <path
       inkscape:connector-curvature="0"
       style="fill:#719e17;fill-opacity:1;stroke:none;stroke-width:1.05833328;stroke-linecap:butt;stroke-linejoin:miter;stroke-miterlimit:4;stroke-dasharray:none;stroke-opacity:1"
       d="m 19.84375,259.34934 c -5.953125,0 -14.0797612,5.97667 -14.0797612,18.92236 0,10.44157 7.3398602,16.69148 14.0797612,16.69148 6.739901,0 14.079758,-6.24991 14.079758,-16.69148 0,-12.94569 -8.126633,-18.92236 -14.079758,-18.92236 z"
       id="path4584-5" />
    <path
       style="fill:#6f5f5f;fill-opacity:1;stroke:none;stroke-width:0.26458332px;stroke-linecap:butt;stroke-linejoin:miter;stroke-opacity:1"
       d="m 12.662276,262.01351 -2.220536,2.38591 c 0,0 2.669383,-0.33037 3.212724,-1.01545 0.543339,-0.68508 -0.992188,-1.37046 -0.992188,-1.37046 z m 13.930416,0.99839 c -2.797621,-0.0284 -5.269446,0.41341 -5.166093,1.1989 0.118118,0.89769 5.150075,2.00769 9.284189,1.77146 l -2.905768,-2.92902 c -0.406405,-0.0236 -0.812667,-0.0373 -1.212328,-0.0413 z m -11.568286,4.15169 c -3.354538,0 -6.5201636,0.37812 -6.8745161,0.68523 -0.3543527,0.3071 -1.2517506,1.46435 -1.1100096,2.10219 0.141741,0.63783 1.7478443,1.46451 8.0553217,1.46451 6.307478,0 8.741069,-1.27559 8.741069,-1.8898 0,-0.61422 -2.716999,-2.36213 -8.811865,-2.36213 z m 17.836122,4.37027 c 0,0 -4.79565,0.89792 -4.724779,2.26808 0.07087,1.37016 5.598626,1.55908 5.598626,1.55908 z m -14.788763,3.87419 c -3.756139,0 -8.1701583,0.89962 -8.055322,2.10271 0.119497,1.25192 6.661535,1.91358 12.520166,1.91358 5.220797,0 6.499986,-1.00876 6.189804,-1.89033 -0.448847,-1.27567 -6.496911,-2.12596 -10.654648,-2.12596 z m -12.0478434,5.64616 0.6697265,2.543 c 2.5677781,0.97768 8.7814639,0.51421 8.8743939,-0.58239 0.118117,-1.39379 -4.252454,-1.96061 -9.5441204,-1.96061 z m 14.9623944,3.62717 c -2.267564,-0.004 -3.739454,0.74142 -3.008602,1.78232 0.779576,1.11031 11.079349,1.58307 12.969233,0.709 0.997654,-0.46141 -0.02355,-2.05525 -9.496576,-2.48047 -0.157824,-0.007 -0.312884,-0.0106 -0.464055,-0.0109 z m -9.127092,5.30252 c -2.2914807,0 -1.819452,0.87385 -0.402042,1.70067 1.417411,0.82682 4.252453,1.11053 6.071464,1.11053 1.81901,0 6.024217,-0.33066 5.740735,-1.55908 -0.283482,-1.22844 -4.464844,-1.25212 -11.410157,-1.25212 z"
       id="path4793"
       inkscape:connector-curvature="0" />
    <path
       style="opacity:0.23800001;fill:#ffffff;fill-opacity:1;stroke:none;stroke-width:0.26458332px;stroke-linecap:butt;stroke-linejoin:miter;stroke-opacity:1"
       d="m 19.84375,259.34933 c -8.8857,0 -14.0797606,9.48073 -14.0797606,18.92236 0,0 1.7175332,-16.91778 14.0797606,-16.91778 12.362227,0 14.07976,16.91778 14.07976,16.91778 0,-9.44163 -5.19406,-18.92236 -14.07976,-18.92236 z"
       id="path4669"
       inkscape:connector-curvature="0"
       sodipodi:nodetypes="scscs" />
    <path
       style="opacity:0.54100001;fill:#000000;stroke:none;stroke-width:0.26458332px;stroke-linecap:butt;stroke-linejoin:miter;stroke-opacity:1"
       d="m 5.7639894,278.27169 c 0.2495754,12.68227 10.9383316,16.69149 14.0797606,16.69149 3.141429,0 13.830186,-4.00922 14.07976,-16.69149 -1.821762,10.2695 -10.606269,13.43381 -14.07976,13.43381 -3.473491,0 -12.2579967,-3.16431 -14.0797606,-13.43381 z"
       id="path4617"
       inkscape:connector-curvature="0" />
    <path
       style="fill:none;stroke:#000000;stroke-width:1.05833328;stroke-linecap:butt;stroke-linejoin:miter;stroke-miterlimit:4;stroke-dasharray:none;stroke-opacity:1"
       d="m 19.84375,259.34933 c -5.953125,0 -14.0797606,5.97667 -14.0797606,18.92236 0,10.44158 7.3398596,16.69149 14.0797606,16.69149 6.739901,0 14.07976,-6.24991 14.07976,-16.69149 0,-12.94569 -8.126635,-18.92236 -14.07976,-18.92236 z"
       id="path4584"
       inkscape:connector-curvature="0" />
  </g>
</svg>
