<?xml version="1.0" encoding="UTF-8" standalone="no"?>
<!-- Created with Inkscape (http://www.inkscape.org/) -->

<svg
   xmlns:dc="http://purl.org/dc/elements/1.1/"
   xmlns:cc="http://creativecommons.org/ns#"
   xmlns:rdf="http://www.w3.org/1999/02/22-rdf-syntax-ns#"
   xmlns:svg="http://www.w3.org/2000/svg"
   xmlns="http://www.w3.org/2000/svg"
   xmlns:sodipodi="http://sodipodi.sourceforge.net/DTD/sodipodi-0.dtd"
   xmlns:inkscape="http://www.inkscape.org/namespaces/inkscape"
   width="150"
   height="150"
   viewBox="0 0 39.687499 39.687499"
   version="1.1"
   id="svg8"
   inkscape:version="0.92.4 (5da689c313, 2019-01-14)"
   sodipodi:docname="MHST2-Bulldrome Egg.svg">
  <defs
     id="defs2" />
  <sodipodi:namedview
     id="base"
     pagecolor="#ffffff"
     bordercolor="#666666"
     borderopacity="1.0"
     inkscape:pageopacity="0.0"
     inkscape:pageshadow="2"
     inkscape:zoom="1.979899"
     inkscape:cx="38.272957"
     inkscape:cy="111.12263"
     inkscape:document-units="px"
     inkscape:current-layer="layer1"
     showgrid="false"
     units="px"
     inkscape:window-width="1304"
     inkscape:window-height="745"
     inkscape:window-x="-8"
     inkscape:window-y="-8"
     inkscape:window-maximized="1"
     showguides="true"
     inkscape:guide-bbox="true"
     inkscape:snap-smooth-nodes="true"
     inkscape:snap-global="false">
    <inkscape:grid
       type="xygrid"
       id="grid878" />
  </sodipodi:namedview>
  <metadata
     id="metadata5">
    <rdf:RDF>
      <cc:Work
         rdf:about="">
        <dc:format>image/svg+xml</dc:format>
        <dc:type
           rdf:resource="http://purl.org/dc/dcmitype/StillImage" />
        <dc:title></dc:title>
      </cc:Work>
    </rdf:RDF>
  </metadata>
  <g
     inkscape:label="Layer 1"
     inkscape:groupmode="layer"
     id="layer1"
     transform="translate(0,-257.31251)">
    <path
       inkscape:connector-curvature="0"
       style="fill:#9a5f3d;fill-opacity:1;stroke:none;stroke-width:1.05833328;stroke-linecap:butt;stroke-linejoin:miter;stroke-miterlimit:4;stroke-dasharray:none;stroke-opacity:1"
       d="m 19.84375,259.34934 c -5.953125,0 -14.0797612,5.97667 -14.0797612,18.92236 0,10.44157 7.3398602,16.69148 14.0797612,16.69148 6.739901,0 14.079758,-6.24991 14.079758,-16.69148 0,-12.94569 -8.126633,-18.92236 -14.079758,-18.92236 z"
       id="path4584-5" />
    <path
       style="fill:#deb071;stroke:none;stroke-width:1px;stroke-linecap:butt;stroke-linejoin:miter;stroke-opacity:1;fill-opacity:1"
       d="M 72.605469 8.1992188 L 61.302734 10.851562 C 61.302734 10.851562 64.964744 15.144204 64.585938 16.34375 C 64.20713 17.543296 60.671875 20.701172 60.671875 20.701172 C 60.671875 20.701172 66.986427 20.826715 67.365234 23.099609 C 67.744041 25.372428 65.660156 31.9375 65.660156 31.9375 C 65.660156 31.9375 73.299076 26.319221 74.246094 27.013672 C 75.193111 27.70816 74.5625 33.769531 74.5625 33.769531 C 74.5625 33.769531 79.928231 28.465462 81.822266 28.402344 C 83.716304 28.339226 88.199128 31.306702 90.345703 31.496094 C 89.840626 29.097001 84.789701 23.541404 84.726562 22.53125 C 84.663407 21.521096 88.136719 16.408203 88.136719 16.408203 C 88.136719 16.408203 81.758934 18.301086 81.064453 16.912109 C 80.369976 15.523133 83.716797 10.03125 83.716797 10.03125 L 79.675781 8.453125 C 79.675781 8.453125 77.023674 11.292969 75.445312 11.292969 C 73.866948 11.292969 72.605469 8.1992188 72.605469 8.1992188 z M 103.47656 18.427734 L 103.41406 18.744141 C 103.41406 18.744141 102.53105 22.405037 101.77344 22.720703 C 101.01582 23.036294 97.480469 22.025391 97.480469 22.025391 C 97.480469 22.025391 100.38345 25.309624 100.32031 26.761719 C 100.25723 28.213813 102.59375 32.507508 102.59375 33.896484 C 104.29838 32.128724 108.08678 29.412995 111.30664 30.296875 C 114.5265 31.180755 114.33594 30.675781 114.33594 30.675781 L 103.47656 18.427734 z M 40.535156 25.044922 L 36.875 27.990234 C 36.875 27.990234 33.214844 36.562783 35.089844 33.794922 C 36.964844 31.02706 40.758927 32.142255 42.5 32.097656 C 40.446439 30.356579 40.535156 25.044922 40.535156 25.044922 z M 51.806641 33.039062 C 51.180358 36.496085 55.32686 44.785344 54.189453 49.046875 C 53.229139 52.644683 50.63315 55.077896 46.494141 57.679688 C 46.494141 57.679688 56.922088 57.476549 58.103516 59.470703 C 59.284947 61.465046 45.671875 78.166016 45.671875 78.166016 C 45.671875 78.166016 63.783734 73.236925 66.357422 75.597656 C 68.931144 77.958425 66.337891 89.287109 66.337891 89.287109 C 66.337891 89.287109 70.947209 81.305623 73.714844 82.320312 C 76.482486 83.334966 82.584997 92.246847 88.701172 97.166016 C 87.499131 89.409669 82.832813 79.667861 83.337891 76.763672 C 83.842964 73.859483 93.060547 73.859375 93.060547 73.859375 C 93.060547 73.859375 83.843551 68.176863 83.085938 64.767578 C 82.328322 61.358331 94.070313 48.101563 94.070312 48.101562 C 94.070315 48.101562 75.003608 52.520309 73.867188 50.5 C 72.730765 48.479691 76.392578 41.029297 76.392578 41.029297 C 72.069849 43.312887 67.881124 44.186007 64.285156 43.21875 C 60.025886 42.073024 55.11364 34.225194 51.806641 33.039062 z M 120.08203 42.796875 C 120.08203 42.796875 118.18749 47.153702 115.66211 47.40625 C 115.66211 47.40625 121.4081 49.553231 121.0293 51.447266 C 120.65049 53.3413 115.03125 59.970703 115.03125 59.970703 C 115.03125 59.970703 123.04839 58.329094 123.86914 59.591797 C 124.68989 60.854461 124.3125 67.103516 124.3125 67.103516 L 126.52148 62.875 L 120.08203 42.796875 z M 23.90625 56.082031 L 21.591797 65.400391 L 22.689453 87.841797 C 23.95748 86.770449 25.188629 87.854283 26.0625 88.382812 C 27.815435 89.442972 31.044695 95.071415 34.5625 99.240234 C 34.774033 93.789626 32.886443 87.911925 33.617188 85.998047 C 34.34792 84.084208 41.646484 84.552734 41.646484 84.552734 C 41.646484 84.552734 35.356377 78.691892 35.292969 76.265625 C 35.229559 73.839357 44.876953 67.496094 44.876953 67.496094 C 44.876953 67.496094 31.787751 66.837793 31.28125 65.308594 C 30.774738 63.779362 35.400391 58.173828 35.400391 58.173828 C 31.194196 59.034217 26.902852 58.715715 23.90625 56.082031 z M 112.06445 72.408203 C 112.06445 72.408203 109.22274 76.258126 107.07617 77.583984 C 104.9296 78.909805 101.51953 81.056641 101.51953 81.056641 C 101.51953 81.056641 104.86607 83.265976 105.56055 84.591797 C 106.25503 85.917617 106.69727 89.453125 106.69727 89.453125 C 106.69727 89.453125 109.34932 86.296708 110.73828 85.539062 C 112.12724 84.781456 116.23047 85.097656 116.23047 85.097656 C 116.23047 85.097656 114.20967 82.446914 114.33594 81.121094 C 114.46221 79.795273 112.25385 75.312392 112.06445 72.408203 z M 126.33203 90.84375 C 126.33203 90.84375 124.18657 93.748108 123.11328 93.9375 C 123.11328 93.9375 124.94301 96.271775 123.61719 97.408203 C 122.29136 98.544632 118.69336 99.554688 118.69336 99.554688 C 118.69336 99.554688 123.68101 100.94439 123.74414 102.39648 C 123.8073 103.84858 126.45898 97.851562 126.45898 97.851562 L 126.33203 90.84375 z M 60.609375 93.052734 C 60.609375 93.052734 60.040084 95.57782 58.966797 96.966797 C 57.893509 98.355735 53.412109 98.734375 53.412109 98.734375 C 53.412109 98.734375 55.811528 101.06998 57.074219 102.26953 C 58.336898 103.46912 58.840965 106.24834 58.146484 107.38477 C 59.219772 106.69028 63.19693 105.74313 64.396484 104.48047 C 65.596042 103.21777 72.162109 102.39648 72.162109 102.39648 C 72.162109 102.39648 68.249405 100.43908 65.976562 98.923828 C 63.703717 97.408615 60.609375 93.052734 60.609375 93.052734 z M 96.46875 98.292969 C 96.46875 98.292969 98.024755 103.53278 97.794922 107.28906 C 97.577773 110.83811 91.544922 110.35156 91.544922 110.35156 C 91.544922 110.35156 95.584866 111.17287 96.46875 114.96094 C 97.352634 118.74901 91.671875 122.34766 91.671875 122.34766 C 91.671875 122.34766 96.343324 120.83285 99.689453 121.14844 C 103.03559 121.46414 99.689453 128.53516 99.689453 128.53516 C 99.689453 128.53516 101.77203 127.14625 103.85547 126.19922 C 105.93891 125.25222 108.5918 128.28125 108.5918 128.28125 L 118.125 117.16992 C 118.125 117.16992 113.32735 117.4221 112.82227 115.6543 C 112.3172 113.88654 119.76563 108.01563 119.76562 108.01562 C 119.76564 108.01562 110.17025 110.35228 108.9707 108.14258 C 107.77114 105.93288 111.49609 101.25977 111.49609 101.25977 C 111.49609 101.25977 107.32811 104.35361 104.80273 104.54297 C 102.27736 104.73236 96.46875 98.292969 96.46875 98.292969 z M 32.451172 110.41406 C 35.102822 113.63392 36.681403 120.07414 38.259766 124.74609 C 39.83813 129.41804 58.210938 137.87891 58.210938 137.87891 C 58.210938 137.87891 58.715634 135.0999 61.746094 136.23633 C 64.776549 137.37276 75.824219 140.27734 75.824219 140.27734 C 75.824219 140.27734 65.406738 134.59613 64.775391 131.25 C 64.144047 127.90387 73.236328 123.86133 73.236328 123.86133 C 73.236328 123.86133 61.366158 127.01901 59.914062 124.93555 C 58.461968 122.85212 61.113281 113.94922 61.113281 113.94922 C 61.113281 113.94922 51.265861 119.12804 49.6875 118.43359 C 48.109135 117.73911 48.929688 110.91992 48.929688 110.91992 C 48.929688 110.91992 45.015319 114.5183 41.353516 114.64453 C 37.691713 114.77077 34.092669 110.41406 32.451172 110.41406 z "
       transform="matrix(0.26458333,0,0,0.26458333,0,257.31251)"
       id="path4723" />
    <path
       style="opacity:0.23800001;fill:#ffffff;fill-opacity:1;stroke:none;stroke-width:0.26458332px;stroke-linecap:butt;stroke-linejoin:miter;stroke-opacity:1"
       d="m 19.84375,259.34933 c -8.8857,0 -14.0797606,9.48073 -14.0797606,18.92236 0,0 1.7175332,-16.91778 14.0797606,-16.91778 12.362227,0 14.07976,16.91778 14.07976,16.91778 0,-9.44163 -5.19406,-18.92236 -14.07976,-18.92236 z"
       id="path4669"
       inkscape:connector-curvature="0"
       sodipodi:nodetypes="scscs" />
    <path
       style="opacity:0.54100001;fill:#000000;stroke:none;stroke-width:0.26458332px;stroke-linecap:butt;stroke-linejoin:miter;stroke-opacity:1"
       d="m 5.7639894,278.27169 c 0.2495754,12.68227 10.9383316,16.69149 14.0797606,16.69149 3.141429,0 13.830186,-4.00922 14.07976,-16.69149 -1.821762,10.2695 -10.606269,13.43381 -14.07976,13.43381 -3.473491,0 -12.2579967,-3.16431 -14.0797606,-13.43381 z"
       id="path4617"
       inkscape:connector-curvature="0" />
    <path
       style="fill:none;stroke:#000000;stroke-width:1.05833328;stroke-linecap:butt;stroke-linejoin:miter;stroke-miterlimit:4;stroke-dasharray:none;stroke-opacity:1"
       d="m 19.84375,259.34933 c -5.953125,0 -14.0797606,5.97667 -14.0797606,18.92236 0,10.44158 7.3398596,16.69149 14.0797606,16.69149 6.739901,0 14.07976,-6.24991 14.07976,-16.69149 0,-12.94569 -8.126635,-18.92236 -14.07976,-18.92236 z"
       id="path4584"
       inkscape:connector-curvature="0" />
  </g>
</svg>
