<?xml version="1.0" encoding="UTF-8" standalone="no"?>
<!-- Created with Inkscape (http://www.inkscape.org/) -->

<svg
   xmlns:dc="http://purl.org/dc/elements/1.1/"
   xmlns:cc="http://creativecommons.org/ns#"
   xmlns:rdf="http://www.w3.org/1999/02/22-rdf-syntax-ns#"
   xmlns:svg="http://www.w3.org/2000/svg"
   xmlns="http://www.w3.org/2000/svg"
   xmlns:sodipodi="http://sodipodi.sourceforge.net/DTD/sodipodi-0.dtd"
   xmlns:inkscape="http://www.inkscape.org/namespaces/inkscape"
   width="150"
   height="150"
   viewBox="0 0 39.687499 39.687499"
   version="1.1"
   id="svg8"
   inkscape:version="0.92.4 (5da689c313, 2019-01-14)"
   sodipodi:docname="MHST2-Velocidrome Egg.svg">
  <defs
     id="defs2" />
  <sodipodi:namedview
     id="base"
     pagecolor="#ffffff"
     bordercolor="#666666"
     borderopacity="1.0"
     inkscape:pageopacity="0.0"
     inkscape:pageshadow="2"
     inkscape:zoom="1.979899"
     inkscape:cx="57.659069"
     inkscape:cy="77.981759"
     inkscape:document-units="px"
     inkscape:current-layer="layer1"
     showgrid="false"
     units="px"
     inkscape:window-width="1304"
     inkscape:window-height="745"
     inkscape:window-x="-8"
     inkscape:window-y="-8"
     inkscape:window-maximized="1"
     showguides="true"
     inkscape:guide-bbox="true"
     inkscape:snap-smooth-nodes="true">
    <inkscape:grid
       type="xygrid"
       id="grid878" />
  </sodipodi:namedview>
  <metadata
     id="metadata5">
    <rdf:RDF>
      <cc:Work
         rdf:about="">
        <dc:format>image/svg+xml</dc:format>
        <dc:type
           rdf:resource="http://purl.org/dc/dcmitype/StillImage" />
        <dc:title></dc:title>
      </cc:Work>
    </rdf:RDF>
  </metadata>
  <g
     inkscape:label="Layer 1"
     inkscape:groupmode="layer"
     id="layer1"
     transform="translate(0,-257.31251)">
    <path
       inkscape:connector-curvature="0"
       style="fill:#27b7ff;fill-opacity:1;stroke:none;stroke-width:1.05833328;stroke-linecap:butt;stroke-linejoin:miter;stroke-miterlimit:4;stroke-dasharray:none;stroke-opacity:1"
       d="m 19.84375,259.34934 c -5.953125,0 -14.0797612,5.97667 -14.0797612,18.92236 0,10.44157 7.3398602,16.69148 14.0797612,16.69148 6.739901,0 14.079758,-6.24991 14.079758,-16.69148 0,-12.94569 -8.126633,-18.92236 -14.079758,-18.92236 z"
       id="path4584-5" />
    <path
       style="fill:#ff7946;fill-opacity:1;stroke:none;stroke-width:0.26458332px;stroke-linecap:butt;stroke-linejoin:miter;stroke-opacity:1"
       d="m 6.6618307,271.7987 c 0.6968935,0.53153 1.1811754,2.16155 0.484282,2.53953 -0.6968937,0.37798 -1.0158111,-0.21261 -1.0158111,-0.21261 z"
       id="path4667"
       inkscape:connector-curvature="0" />
    <path
       style="fill:#ff7946;fill-opacity:1;stroke:none;stroke-width:0.26458332px;stroke-linecap:butt;stroke-linejoin:miter;stroke-opacity:1"
       d="m 19.326927,265.49654 c -1.570208,0 -3.090303,0.66818 -3.073599,2.73951 0.0167,2.07134 -0.584652,3.69166 -2.388722,4.51018 -1.804069,0.81851 -2.104747,1.78736 -1.620321,3.30746 0.484426,1.52009 6.678148,0.84769 9.371228,-0.97132 2.69308,-1.81901 3.614397,-6.30748 2.527716,-7.37053 -1.086682,-1.06306 -3.821219,-2.2153 -4.816302,-2.2153 z"
       id="path4635"
       inkscape:connector-curvature="0" />
    <path
       style="fill:#ff7946;fill-opacity:1;stroke:none;stroke-width:0.26458332px;stroke-linecap:butt;stroke-linejoin:miter;stroke-opacity:1"
       d="m 11.587332,266.77871 c -0.708648,0.26321 -1.169363,2.19698 -0.74414,3.40178 0.425223,1.2048 2.244235,0.16537 2.42141,-0.92131 0.08926,-0.54747 0.143025,-1.31342 -0.14829,-1.85641 -0.286929,-0.53482 -0.913566,-0.85264 -1.52898,-0.62406 z"
       id="path4637"
       inkscape:connector-curvature="0"
       sodipodi:nodetypes="sssss" />
    <path
       style="fill:#ff7946;fill-opacity:1;stroke:none;stroke-width:0.26458332px;stroke-linecap:butt;stroke-linejoin:miter;stroke-opacity:1"
       d="m 16.219919,278.37559 c -1.837478,0 -3.507912,1.11919 -3.207234,2.15486 0.300678,1.03567 1.319643,1.70385 2.054634,1.23612 0.734992,-0.46772 2.021226,-1.33634 3.040191,-1.20271 1.018965,0.13364 1.603617,-0.41761 0.902035,-1.23612 -0.701582,-0.81851 -1.854182,-0.95215 -2.789626,-0.95215 z"
       id="path4639"
       inkscape:connector-curvature="0" />
    <path
       style="fill:#ff7946;fill-opacity:1;stroke:none;stroke-width:0.26458332px;stroke-linecap:butt;stroke-linejoin:miter;stroke-opacity:1"
       d="m 7.5837732,275.97017 c 1.0356694,0 2.4722428,1.85418 2.6392858,2.65599 0.167044,0.80181 0.150339,1.90429 -0.6180602,1.83747 -0.7683997,-0.0668 -2.956669,-0.63476 -3.5580256,-1.65373 -0.6013564,-1.01896 0.4844261,-2.83973 1.5368,-2.83973 z"
       id="path4641"
       inkscape:connector-curvature="0" />
    <path
       style="fill:#ff7946;fill-opacity:1;stroke:none;stroke-width:0.26458332px;stroke-linecap:butt;stroke-linejoin:miter;stroke-opacity:1"
       d="m 17.539563,282.68531 c -1.169304,0 -3.842,1.16931 -3.741774,2.43884 0.100226,1.26953 1.202713,1.60361 1.286235,2.28849 0.08352,0.68488 -0.05011,0.88533 0.434313,1.62033 0.484426,0.73498 1.336347,1.67043 2.505651,1.77066 1.169305,0.10022 2.203644,-0.73805 2.097338,-1.90741 -0.106306,-1.16936 -1.068964,-0.57287 -1.210705,-2.07296 -0.141741,-1.5001 0.555153,-1.72452 0.295294,-2.51591 -0.259859,-0.79139 -0.934918,-1.62204 -1.666352,-1.62204 z"
       id="path4643"
       inkscape:connector-curvature="0" />
    <path
       style="fill:#ff7946;fill-opacity:1;stroke:none;stroke-width:0.26458332px;stroke-linecap:butt;stroke-linejoin:miter;stroke-opacity:1"
       d="m 26.198474,285.52396 c -0.897693,0 -0.74414,1.46466 -1.169363,2.04344 -0.425224,0.57877 -0.909505,1.83082 -0.118118,3.1183 0.791388,1.28748 2.846632,1.22842 3.673455,-0.41341 0.826823,-1.64184 -1.145739,-4.74833 -2.385974,-4.74833 z"
       id="path4645"
       inkscape:connector-curvature="0" />
    <path
       style="fill:#ff7946;fill-opacity:1;stroke:none;stroke-width:0.26458332px;stroke-linecap:butt;stroke-linejoin:miter;stroke-opacity:1"
       d="m 31.721552,274.9512 c -0.718286,0 -1.127543,0.61806 -1.094134,1.46998 0.03341,0.85193 -0.425961,1.42823 -1.085784,2.04629 -0.659821,0.61806 -1.010613,0.88533 -0.359143,2.41377 0.65147,1.52845 1.018966,3.30746 2.614231,3.30746 1.595263,0 1.937653,-2.58624 2.079393,-5.06671 0.141742,-2.48047 -0.434872,-4.17079 -2.154563,-4.17079 z"
       id="path4647"
       inkscape:connector-curvature="0" />
    <path
       style="fill:#ff7946;fill-opacity:1;stroke:none;stroke-width:0.26458332px;stroke-linecap:butt;stroke-linejoin:miter;stroke-opacity:1"
       d="m 26.23391,272.35385 c -1.206911,0.28557 -1.641834,2.25605 -0.838635,3.34273 0.803199,1.08668 2.882068,1.32292 3.283669,-0.0945 0.401598,-1.41741 0.121185,-2.43471 -0.330731,-2.75214 -0.535125,-0.37588 -1.332255,-0.68113 -2.114303,-0.49609 z"
       id="path4649"
       inkscape:connector-curvature="0"
       sodipodi:nodetypes="sssss" />
    <path
       style="fill:#ff7946;fill-opacity:1;stroke:none;stroke-width:0.26458332px;stroke-linecap:butt;stroke-linejoin:miter;stroke-opacity:1"
       d="m 27.044335,265.88074 c -0.593004,0 -1.102487,0.20045 -1.027317,0.74335 0.07517,0.54289 0.968852,1.36975 1.628672,1.23612 0.659824,-0.13364 0.601359,-0.85193 0.476076,-1.09414 -0.125283,-0.24221 -0.751697,-0.88533 -1.077431,-0.88533 z"
       id="path4651"
       inkscape:connector-curvature="0" />
    <path
       style="fill:#ff7946;fill-opacity:1;stroke:none;stroke-width:0.26458332px;stroke-linecap:butt;stroke-linejoin:miter;stroke-opacity:1"
       d="m 19.347656,262.77452 c -0.732329,0 -1.677269,-2.36235 -1.641834,-3.012 0.03543,-0.64964 3.980562,-0.7087 4.204985,-0.15355 0.224424,0.55515 -1.110305,1.61821 -1.263858,1.87807 -0.153553,0.25986 -0.720517,1.28748 -1.299293,1.28748 z"
       id="path4653"
       inkscape:connector-curvature="0" />
    <path
       style="fill:#ff7946;fill-opacity:1;stroke:none;stroke-width:0.26458332px;stroke-linecap:butt;stroke-linejoin:miter;stroke-opacity:1"
       d="m 15.367095,261.41617 c -0.47879,-0.0727 -1.866258,0.70871 -1.393788,1.16936 0.47247,0.46066 2.326916,-1.02762 1.393788,-1.16936 z"
       id="path4655"
       inkscape:connector-curvature="0"
       sodipodi:nodetypes="scs" />
    <path
       style="fill:#ff7946;fill-opacity:1;stroke:none;stroke-width:0.26458332px;stroke-linecap:butt;stroke-linejoin:miter;stroke-opacity:1"
       d="m 11.799944,262.78633 c 0,0 0.437035,1.18118 0.330729,1.94894 -0.106305,0.76777 -2.6694562,2.05525 -3.1537381,1.71271 -0.4842823,-0.34254 2.8230091,-3.66165 2.8230091,-3.66165 z"
       id="path4657"
       inkscape:connector-curvature="0" />
    <path
       style="fill:#ff7946;fill-opacity:1;stroke:none;stroke-width:0.26458332px;stroke-linecap:butt;stroke-linejoin:miter;stroke-opacity:1"
       d="m 24.48857,279.55325 c -1.294586,0 -2.138156,0.33409 -2.271791,1.36975 -0.133635,1.03567 0.225509,2.54742 0.910387,2.4973 0.684878,-0.0501 0.893682,-1.10248 1.144248,-1.31964 0.250565,-0.21716 1.319643,0.28397 1.712195,-0.30068 0.392552,-0.58465 0.467722,-1.21106 0.242213,-1.59526 -0.225508,-0.3842 -1.094134,-0.65147 -1.737252,-0.65147 z"
       id="path4659"
       inkscape:connector-curvature="0" />
    <path
       style="fill:#ff7946;fill-opacity:1;stroke:none;stroke-width:0.26458332px;stroke-linecap:butt;stroke-linejoin:miter;stroke-opacity:1"
       d="m 6.0594311,281.28354 c 0.5433407,0 2.2796688,0.74414 2.3032923,1.58278 0.023624,0.83863 -0.9685639,2.39779 -1.358352,2.2088 -0.3897879,-0.18899 -0.9449403,-3.79158 -0.9449403,-3.79158 z"
       id="path4661"
       inkscape:connector-curvature="0" />
    <path
       style="fill:#ff7946;fill-opacity:1;stroke:none;stroke-width:0.26458332px;stroke-linecap:butt;stroke-linejoin:miter;stroke-opacity:1"
       d="m 9.5675227,285.31135 c -0.4344755,-0.0472 -1.0040016,1.2048 -0.6732701,1.71271 0.3307268,0.5079 0.8976934,0.28348 0.8386344,-0.23624 -0.059059,-0.51972 0.366166,-0.63783 0.389788,-0.88588 0.02362,-0.24805 -0.2480919,-0.55721 -0.5551523,-0.59059 z"
       id="path4663"
       inkscape:connector-curvature="0"
       sodipodi:nodetypes="sssss" />
    <path
       style="fill:#ff7946;fill-opacity:1;stroke:none;stroke-width:0.26458332px;stroke-linecap:butt;stroke-linejoin:miter;stroke-opacity:1"
       d="m 11.823567,289.05568 c -0.755952,0 -1.783574,0.83863 -1.759951,1.14574 0.02363,0.30711 4.736514,3.81519 4.996373,3.62621 0.259858,-0.18899 0.09449,-1.15755 -0.507906,-1.77177 -0.602399,-0.61421 -1.641834,-1.33472 -1.736328,-1.78357 -0.09449,-0.44885 -0.307106,-1.21661 -0.992188,-1.21661 z"
       id="path4665"
       inkscape:connector-curvature="0"
       sodipodi:nodetypes="sccccs" />
    <path
       style="opacity:0.23800001;fill:#ffffff;fill-opacity:1;stroke:none;stroke-width:0.26458332px;stroke-linecap:butt;stroke-linejoin:miter;stroke-opacity:1"
       d="m 19.84375,259.34933 c -8.8857,0 -14.0797606,9.48073 -14.0797606,18.92236 0,0 1.7175332,-16.91778 14.0797606,-16.91778 12.362227,0 14.07976,16.91778 14.07976,16.91778 0,-9.44163 -5.19406,-18.92236 -14.07976,-18.92236 z"
       id="path4669"
       inkscape:connector-curvature="0"
       sodipodi:nodetypes="scscs" />
    <path
       style="opacity:0.54100001;fill:#000000;stroke:none;stroke-width:0.26458332px;stroke-linecap:butt;stroke-linejoin:miter;stroke-opacity:1"
       d="m 5.7639894,278.27169 c 0.2495754,12.68227 10.9383316,16.69149 14.0797606,16.69149 3.141429,0 13.830186,-4.00922 14.07976,-16.69149 -1.821762,10.2695 -10.606269,13.43381 -14.07976,13.43381 -3.473491,0 -12.2579967,-3.16431 -14.0797606,-13.43381 z"
       id="path4617"
       inkscape:connector-curvature="0" />
    <path
       style="fill:none;stroke:#000000;stroke-width:1.05833328;stroke-linecap:butt;stroke-linejoin:miter;stroke-miterlimit:4;stroke-dasharray:none;stroke-opacity:1"
       d="m 19.84375,259.34933 c -5.953125,0 -14.0797606,5.97667 -14.0797606,18.92236 0,10.44158 7.3398596,16.69149 14.0797606,16.69149 6.739901,0 14.07976,-6.24991 14.07976,-16.69149 0,-12.94569 -8.126635,-18.92236 -14.07976,-18.92236 z"
       id="path4584"
       inkscape:connector-curvature="0" />
  </g>
</svg>
