<?xml version="1.0" encoding="UTF-8" standalone="no"?>
<!-- Created with Inkscape (http://www.inkscape.org/) -->

<svg
   xmlns:dc="http://purl.org/dc/elements/1.1/"
   xmlns:cc="http://creativecommons.org/ns#"
   xmlns:rdf="http://www.w3.org/1999/02/22-rdf-syntax-ns#"
   xmlns:svg="http://www.w3.org/2000/svg"
   xmlns="http://www.w3.org/2000/svg"
   xmlns:sodipodi="http://sodipodi.sourceforge.net/DTD/sodipodi-0.dtd"
   xmlns:inkscape="http://www.inkscape.org/namespaces/inkscape"
   width="150"
   height="150"
   viewBox="0 0 39.687499 39.687499"
   version="1.1"
   id="svg8"
   inkscape:version="0.92.4 (5da689c313, 2019-01-14)"
   sodipodi:docname="MHST2-Yian Kut-Ku Egg.svg">
  <defs
     id="defs2" />
  <sodipodi:namedview
     id="base"
     pagecolor="#ffffff"
     bordercolor="#666666"
     borderopacity="1.0"
     inkscape:pageopacity="0.0"
     inkscape:pageshadow="2"
     inkscape:zoom="2.8"
     inkscape:cx="132.93346"
     inkscape:cy="71.808857"
     inkscape:document-units="px"
     inkscape:current-layer="layer1"
     showgrid="false"
     units="px"
     inkscape:window-width="1304"
     inkscape:window-height="745"
     inkscape:window-x="-8"
     inkscape:window-y="-8"
     inkscape:window-maximized="1"
     showguides="true"
     inkscape:guide-bbox="true"
     inkscape:snap-smooth-nodes="true">
    <inkscape:grid
       type="xygrid"
       id="grid878" />
  </sodipodi:namedview>
  <metadata
     id="metadata5">
    <rdf:RDF>
      <cc:Work
         rdf:about="">
        <dc:format>image/svg+xml</dc:format>
        <dc:type
           rdf:resource="http://purl.org/dc/dcmitype/StillImage" />
        <dc:title></dc:title>
      </cc:Work>
    </rdf:RDF>
  </metadata>
  <g
     inkscape:label="Layer 1"
     inkscape:groupmode="layer"
     id="layer1"
     transform="translate(0,-257.31251)">
    <path
       inkscape:connector-curvature="0"
       style="fill:#fd65d7;fill-opacity:1;stroke:none;stroke-width:1.05833328;stroke-linecap:butt;stroke-linejoin:miter;stroke-miterlimit:4;stroke-dasharray:none;stroke-opacity:1"
       d="m 19.84375,259.34934 c -5.953125,0 -14.0797612,5.97667 -14.0797612,18.92236 0,10.44157 7.3398602,16.69148 14.0797612,16.69148 6.739901,0 14.079758,-6.24991 14.079758,-16.69148 0,-12.94569 -8.126633,-18.92236 -14.079758,-18.92236 z"
       id="path4584-5" />
    <path
       style="fill:#146bef;fill-opacity:1;stroke:none;stroke-width:1px;stroke-linecap:butt;stroke-linejoin:miter;stroke-opacity:1"
       d="M 76.039062 7.2519531 C 71.745563 7.204673 66.995245 7.8786412 66.919922 9.2597656 C 66.785994 11.715136 70.357142 20.644531 73.125 20.644531 C 75.3125 20.644531 77.454798 16.759492 78.035156 15.777344 C 78.615514 14.795196 83.660717 10.777892 82.8125 8.6796875 C 82.441407 7.7617229 79.378451 7.2887266 76.039062 7.2519531 z M 57.703125 15.496094 C 55.64248 15.600531 51.138394 18.297463 52.8125 19.929688 C 54.598213 21.670765 61.606861 16.045476 58.080078 15.509766 C 57.966978 15.492592 57.840501 15.489131 57.703125 15.496094 z M 44.597656 20.6875 C 44.597656 20.6875 32.097376 33.232704 33.927734 34.527344 C 35.758091 35.821983 45.445874 30.956495 45.847656 28.054688 C 46.249443 25.152917 44.597656 20.6875 44.597656 20.6875 z M 73.046875 30.931641 C 67.11223 30.931641 61.366554 33.456507 61.429688 41.285156 C 61.492806 49.113843 59.220876 55.238412 52.402344 58.332031 C 45.583815 61.425612 44.446442 65.086771 46.277344 70.832031 C 48.108245 76.577253 71.518695 74.037108 81.697266 67.162109 C 91.875836 60.287111 95.357141 43.322514 91.25 39.304688 C 87.142855 35.286823 76.807819 30.931641 73.046875 30.931641 z M 102.21484 32.384766 C 99.973569 32.384766 98.047924 33.141454 98.332031 35.193359 C 98.616138 37.245227 101.99447 40.370293 104.48828 39.865234 C 106.9821 39.360138 106.76062 36.645908 106.28711 35.730469 C 105.8136 34.815029 103.44596 32.384766 102.21484 32.384766 z M 45.525391 35.498047 C 44.959319 35.475339 44.376415 35.561363 43.794922 35.777344 C 41.116567 36.772153 39.37528 44.081191 40.982422 48.634766 C 42.589564 53.188341 49.465128 49.259481 50.134766 45.152344 C 50.472126 43.083166 50.675252 40.188964 49.574219 38.136719 C 48.760877 36.620694 47.223605 35.56617 45.525391 35.498047 z M 25.177734 54.75 L 23.169922 63.544922 C 23.169922 63.544922 24.375837 65.778195 27.009766 64.349609 C 29.643694 62.921024 27.811663 56.758932 25.177734 54.75 z M 101.36328 56.646484 C 100.63358 56.614475 99.891287 56.674768 99.152344 56.849609 C 94.59079 57.928929 92.946709 65.375285 95.982422 69.482422 C 99.018135 73.589559 106.87472 74.482178 108.39258 69.125 C 109.91043 63.76786 108.85061 59.924345 107.14258 58.724609 C 105.62569 57.659123 103.5524 56.742512 101.36328 56.646484 z M 119.89258 66.666016 C 117.1778 66.666016 115.63154 69.002801 115.75781 72.222656 C 115.88409 75.442549 114.14812 77.619103 111.6543 79.955078 C 109.16049 82.291053 107.83463 83.301344 110.29688 89.078125 C 112.75912 94.854944 114.14643 101.58008 120.17578 101.58008 C 126.20512 101.58008 127.49945 91.804692 128.03516 82.429688 C 128.57087 73.054683 126.3922 66.666016 119.89258 66.666016 z M 28.662109 70.517578 C 24.684633 70.517578 20.582626 77.398813 22.855469 81.25 C 25.128313 85.101225 33.398546 87.247528 36.302734 87.5 C 39.20692 87.752548 39.270019 83.585151 38.638672 80.554688 C 38.007328 77.524224 32.576451 70.517578 28.662109 70.517578 z M 61.302734 79.609375 C 54.357935 79.609375 48.04522 83.83761 49.181641 87.751953 C 50.318061 91.666297 54.169347 94.191627 56.947266 92.423828 C 59.725188 90.656067 64.586294 87.373848 68.4375 87.878906 C 72.288706 88.384002 74.499305 86.300612 71.847656 83.207031 C 69.196008 80.11345 64.838271 79.609375 61.302734 79.609375 z M 92.554688 84.058594 C 87.661764 84.058594 84.473827 85.322023 83.96875 89.236328 C 83.463673 93.150672 84.821641 98.865211 87.410156 98.675781 C 89.998672 98.486427 90.787354 94.508262 91.734375 93.6875 C 92.681392 92.866738 96.721417 94.760482 98.205078 92.550781 C 99.688739 90.34108 99.973411 87.973579 99.121094 86.521484 C 98.26878 85.06939 94.98537 84.058594 92.554688 84.058594 z M 22.902344 90.599609 C 22.902344 90.599609 24.999442 104.21539 26.472656 104.92969 C 27.945871 105.64398 31.696709 99.751657 31.607422 96.582031 C 31.518136 93.412368 24.955915 90.599609 22.902344 90.599609 z M 66.291016 95.896484 C 61.871599 95.896484 51.769631 100.31701 52.148438 105.11523 C 52.527244 109.91346 56.694092 111.17515 57.009766 113.76367 C 57.325432 116.35219 56.821454 117.11072 58.652344 119.88867 C 60.483245 122.66655 63.70363 126.20126 68.123047 126.58008 C 72.542467 126.95886 76.450615 123.79072 76.048828 119.37109 C 75.647042 114.95147 72.00837 117.20674 71.472656 111.53711 C 70.936942 105.86744 73.571988 105.01842 72.589844 102.02734 C 71.607699 99.036263 69.055491 95.896484 66.291016 95.896484 z M 36.160156 105.82227 C 34.518044 105.64387 32.365226 110.37526 33.615234 112.29492 C 34.865225 114.21454 37.008371 113.36664 36.785156 111.40234 C 36.561941 109.43805 38.170486 108.9922 38.259766 108.05469 C 38.349038 107.11718 37.3207 105.94843 36.160156 105.82227 z M 99.017578 106.625 C 95.624723 106.625 96.204798 112.16209 94.597656 114.34961 C 92.99051 116.53709 91.161275 121.2687 94.152344 126.13477 C 97.143417 131.00083 104.91016 130.77761 108.03516 124.57227 C 111.16016 118.36689 103.70508 106.625 99.017578 106.625 z M 44.6875 119.97461 C 41.830359 119.97461 37.945872 123.14396 38.035156 124.30469 C 38.124466 125.46542 55.937778 138.72402 56.919922 138.00977 C 57.902062 137.29547 57.276772 133.63396 55 131.3125 C 52.723216 128.99108 48.794643 126.26871 48.4375 124.57227 C 48.080372 122.87582 47.276786 119.97461 44.6875 119.97461 z "
       transform="matrix(0.26458333,0,0,0.26458333,0,257.31251)"
       id="path4667" />
    <path
       style="opacity:0.23800001;fill:#ffffff;fill-opacity:1;stroke:none;stroke-width:0.26458332px;stroke-linecap:butt;stroke-linejoin:miter;stroke-opacity:1"
       d="m 19.84375,259.34933 c -8.8857,0 -14.0797606,9.48073 -14.0797606,18.92236 0,0 1.7175332,-16.91778 14.0797606,-16.91778 12.362227,0 14.07976,16.91778 14.07976,16.91778 0,-9.44163 -5.19406,-18.92236 -14.07976,-18.92236 z"
       id="path4669"
       inkscape:connector-curvature="0"
       sodipodi:nodetypes="scscs" />
    <path
       style="opacity:0.54100001;fill:#000000;stroke:none;stroke-width:0.26458332px;stroke-linecap:butt;stroke-linejoin:miter;stroke-opacity:1"
       d="m 5.7639894,278.27169 c 0.2495754,12.68227 10.9383316,16.69149 14.0797606,16.69149 3.141429,0 13.830186,-4.00922 14.07976,-16.69149 -1.821762,10.2695 -10.606269,13.43381 -14.07976,13.43381 -3.473491,0 -12.2579967,-3.16431 -14.0797606,-13.43381 z"
       id="path4617"
       inkscape:connector-curvature="0" />
    <path
       style="fill:none;stroke:#000000;stroke-width:1.05833328;stroke-linecap:butt;stroke-linejoin:miter;stroke-miterlimit:4;stroke-dasharray:none;stroke-opacity:1"
       d="m 19.84375,259.34933 c -5.953125,0 -14.0797606,5.97667 -14.0797606,18.92236 0,10.44158 7.3398596,16.69149 14.0797606,16.69149 6.739901,0 14.07976,-6.24991 14.07976,-16.69149 0,-12.94569 -8.126635,-18.92236 -14.07976,-18.92236 z"
       id="path4584"
       inkscape:connector-curvature="0" />
  </g>
</svg>
