<svg xmlns="http://www.w3.org/2000/svg" viewBox="0 0 33.867 33.867"><path style="fill:#7ab9f6;fill-opacity:1;stroke:#000;stroke-width:1.0583334;stroke-linecap:butt;stroke-linejoin:round;stroke-miterlimit:4;stroke-dasharray:none;stroke-opacity:1" d="M16.933 266.308c-1.058 0-1.323 6.086-3.968 10.054-2.646 3.97-6.086 4.234-6.086 10.055 0 5.82 4.498 7.408 6.086 7.408H20.903c1.587 0 6.085-1.588 6.085-7.408 0-5.821-3.44-6.086-6.086-10.055-2.646-3.968-2.91-10.054-3.969-10.054z" transform="translate(0 -263.133)"/><path style="fill:#005cd1;fill-opacity:1;stroke:none;stroke-width:.26458335px;stroke-linecap:butt;stroke-linejoin:miter;stroke-opacity:1" d="M10.583 285.887c0 2.186 1.059 4.234 6.35 4.234 5.292 0 6.35-1.795 6.35-4.234-1.101 1.909-2.646 3.175-6.35 3.175-3.704 0-5.188-1.162-6.35-3.175z" transform="translate(0 -263.133)"/></svg>