<svg xmlns="http://www.w3.org/2000/svg" viewBox="0 0 33.867 33.867"><path style="fill:#e0f5fc;fill-opacity:1;stroke:#000;stroke-width:1.0583334;stroke-linecap:butt;stroke-linejoin:round;stroke-miterlimit:4;stroke-dasharray:none;stroke-opacity:1" d="m21.431 280.3-4.233 4.233v5.556l4.233 4.234h1.588l4.233-4.234v-5.556L23.02 280.3h-.794z" transform="translate(0 -263.133)"/><path style="fill:#6d86f8;fill-opacity:1;stroke:none;stroke-width:.26458335px;stroke-linecap:butt;stroke-linejoin:miter;stroke-opacity:1" d="m21.82 283.74-2.156 2.156v2.83l2.157 2.157h.808l2.157-2.156v-2.83l-2.157-2.158h-.404z" transform="translate(0 -263.133)"/><path style="fill:#e0f5fc;fill-opacity:1;stroke:#000;stroke-width:1.05833352;stroke-linecap:butt;stroke-linejoin:round;stroke-miterlimit:4;stroke-dasharray:none;stroke-opacity:1" d="m12.408 265.81-5.793 5.793v7.604L12.408 285h2.172l5.793-5.793v-7.604l-5.793-5.793h-1.086z" transform="translate(0 -263.133)"/><path style="fill:#cff2f6;fill-opacity:.99607843;stroke:#6d86f8;stroke-width:1.0583334;stroke-linecap:round;stroke-linejoin:round;stroke-miterlimit:4;stroke-dasharray:none;stroke-opacity:1" d="m12.94 270.517-2.95 2.951v3.874l2.95 2.951H14.047l2.951-2.951v-3.874l-2.95-2.95h-.554z" transform="translate(0 -263.133)"/></svg>