<svg xmlns="http://www.w3.org/2000/svg" viewBox="0 0 33.867 33.867"><path style="fill:#897ab9;fill-opacity:1;stroke:none;stroke-width:1.0583334;stroke-linecap:round;stroke-linejoin:round;stroke-miterlimit:4;stroke-dasharray:none;stroke-opacity:1" d="m16.404 266.308-3.175 3.175v12.7l-1.058-1.058V271.6h-1.059l-2.116 2.117H7.937l-1.058 1.058v9.525l6.35 6.35v3.175h7.408v-3.175l6.35-6.35v-9.525l-1.058-1.058h-1.058l-2.117-2.117h-1.058v9.525l-1.059 1.058v-12.7l-3.175-3.175h-.529z" transform="translate(0 -263.133)"/><path style="fill:#7616ff;fill-opacity:1;stroke:none;stroke-width:.26458335px;stroke-linecap:butt;stroke-linejoin:miter;stroke-opacity:1" d="M12.17 277.42H6.88v-2.38l1.058-1.323h1.058l1.852-2.117h1.323zM16.404 266.308l-3.175 3.175v5.821H20.638v-5.82l-3.175-3.176h-.53zM21.696 277.42h5.291v-2.38l-1.058-1.323h-1.058l-1.852-2.117h-1.323z" transform="translate(0 -263.133)"/><path style="fill:none;fill-opacity:1;stroke:#000;stroke-width:1.0583334;stroke-linecap:round;stroke-linejoin:round;stroke-miterlimit:4;stroke-dasharray:none;stroke-opacity:1" d="m16.404 266.308-3.175 3.175v12.7l-1.058-1.058V271.6h-1.058l-4.234 3.175v9.525l6.35 6.35v3.175H20.638v-3.175l6.35-6.35v-9.525l-4.234-3.175h-1.058v9.525l-1.059 1.058v-12.7l-3.174-3.175h-.53z" transform="translate(0 -263.133)"/></svg>