<svg xmlns="http://www.w3.org/2000/svg" viewBox="0 0 135.467 135.467"><path d="m25.741 13.527 5.95 29.813 18.586-.2 2.3-9.959 25.514 1.134-1.134 21.356-27.404 9.071 5.341 28.699 17.891-1.176 2.565-25.632 32.695-3.307-2.362-48.38zm26.353 90.856-3.864 16.11 30.333.662-2.218-16.387z" fill="#9e6925"/><path d="m52.094 104.383-5.663-.09-1.98 19.697 37.986 1.323-2.032-20.48-4.06-.065.328 14.78H50.31zm-30.322-94.07 4.233 34.283 5.686-1.256-3.493-28.774 74.556 1.607 3.402 44.979-31.846 3.211-1.526 27.901 3.404-.224 2.544-21.553 33.66-2.91-.662-56.792zm29.104 21.356-.599 11.47 3.623 2.138 1.399-6.445 16.744 1.247-.661 13.324-26.553 7.654 6.937 32.59 3.128-.206-1.183-28.132 26.459-8.22.85-25.23z" fill="#176998"/><path d="m30.13 126.84-4.624-14.426-5.356 3.894-3.993 9.955zm86.547.345-2.64-12.366-7.283 4.21-1.327 7.689z" fill="#33596c"/><path d="m22.43 106.333-11.357 15.77-.2 3.941 5.285.219 7.21-10.508 6.762 11.085 4.995.207-9.085-18.175zm89.603.936-6.013 5.88-5.546 13.363 4.953.206 2.664-4.883 4.477-4.477 4.11 9.827 7.917.33-2.138-6.08zm-31.628-2.436.331 18.684-34.395-.566.09-18.658-3.303-.052-.945 21.45 42.334 1.607.283-22.396zM19.315 7.951l5.103 37.704 31.088 1.606 1.985-5.764 10.867.283 1.417 8.127-26.647 9.26 4.158 34.774 4.48-.295-5.52-30.888 26.931-8.41 1.513-15.875-20.98-1.228-.094 5.858-26.175.283-3.213-31.466 84.572.19 2.174 53.577-33.83 3.213-.956 23.141 4.17-.274-.095-19.087 34.207-3.118-.473-60.95z" fill="#173142"/></svg>