<svg xmlns="http://www.w3.org/2000/svg" viewBox="0 0 135.467 135.467"><path style="fill:#9e6925;fill-opacity:1;stroke:none;stroke-width:.26458332px;stroke-linecap:butt;stroke-linejoin:miter;stroke-opacity:1" d="m25.741-105.006 5.95 29.813 18.586-.2 2.3-9.959 25.514 1.134-1.134 21.356-27.404 9.071 5.341 28.699 17.891-1.176L75.35-51.9l32.695-3.307-2.362-48.38zM52.094-14.15 48.23 1.96l30.333.662-2.218-16.387z" transform="translate(0 118.533)"/><path style="fill:#176998;fill-opacity:1;stroke:none;stroke-width:.26458332px;stroke-linecap:butt;stroke-linejoin:miter;stroke-opacity:1" d="m52.094-14.15-5.663-.09-1.98 19.697L82.437 6.78 80.405-13.7l-4.06-.065.328 14.78H50.31zM21.772-108.22l4.233 34.283 5.686-1.256-3.493-28.774 74.556 1.607 3.402 44.979L74.31-54.17l-1.526 27.901 3.404-.224 2.544-21.553 33.66-2.91-.662-56.792zm29.104 21.356-.599 11.47 3.623 2.138 1.399-6.445 16.744 1.247-.661 13.324-26.553 7.654 6.937 32.59 3.128-.206-1.183-28.132 26.459-8.22.85-25.23z" transform="translate(0 118.533)"/><path style="fill:#33596c;fill-opacity:1;stroke:none;stroke-width:.26458332px;stroke-linecap:butt;stroke-linejoin:miter;stroke-opacity:1" d="M30.13 8.307 25.506-6.119 20.15-2.225 16.157 7.73zM116.677 8.652l-2.64-12.366-7.283 4.21-1.327 7.689z" transform="translate(0 118.533)"/><path style="fill:#173142;fill-opacity:1;stroke:none;stroke-width:.26458332px;stroke-linecap:butt;stroke-linejoin:miter;stroke-opacity:1" d="M22.43-12.2 11.073 3.57l-.2 3.941 5.285.219 7.21-10.508L30.13 8.307l4.995.207L26.04-9.661zM112.033-11.264l-6.013 5.88-5.546 13.363 4.953.206 2.664-4.883 4.477-4.477 4.11 9.827 7.917.33-2.138-6.08zM80.405-13.7l.331 18.684-34.395-.566.09-18.658-3.303-.052-.945 21.45 42.334 1.607.283-22.396zM19.315-110.582l5.103 37.704 31.088 1.606 1.985-5.764 10.867.283 1.417 8.127-26.647 9.26 4.158 34.774 4.48-.295-5.52-30.888 26.931-8.41L74.69-80.06 53.71-81.288l-.094 5.858-26.175.283-3.213-31.466 84.572.19 2.174 53.577-33.83 3.213-.956 23.141 4.17-.274-.095-19.087 34.207-3.118-.473-60.95z" transform="translate(0 118.533)"/></svg>